<svg width="38" height="38" viewBox="0 0 38 38" fill="none" xmlns="http://www.w3.org/2000/svg">
<path d="M32.3334 13.484V5.6673H24.5167L19 0.150635L13.4834 5.6673H5.66669V13.484L0.150024 19.0006L5.66669 24.5173V32.334H13.4834L19 37.8506L24.5167 32.334H32.3334V24.5173L37.85 19.0006L32.3334 13.484ZM19 29.0006C13.4834 29.0006 9.00002 24.5173 9.00002 19.0006C9.00002 13.484 13.4834 9.00064 19 9.00064C24.5167 9.00064 29 13.484 29 19.0006C29 24.5173 24.5167 29.0006 19 29.0006ZM19 12.334C15.3167 12.334 12.3334 15.3173 12.3334 19.0006C12.3334 22.684 15.3167 25.6673 19 25.6673C22.6834 25.6673 25.6667 22.684 25.6667 19.0006C25.6667 15.3173 22.6834 12.334 19 12.334Z" fill="white"/>
</svg>
