<svg width="40" height="40" viewBox="0 0 40 40" fill="none" xmlns="http://www.w3.org/2000/svg">
<path d="M19.9999 3.33325C13.5499 3.33325 8.33325 8.54992 8.33325 14.9999C8.33325 21.9499 15.6999 31.5333 18.7333 35.1833C19.3999 35.9833 20.6166 35.9833 21.2833 35.1833C24.2999 31.5333 31.6666 21.9499 31.6666 14.9999C31.6666 8.54992 26.4499 3.33325 19.9999 3.33325ZM19.9999 19.1666C17.6999 19.1666 15.8333 17.2999 15.8333 14.9999C15.8333 12.6999 17.6999 10.8333 19.9999 10.8333C22.2999 10.8333 24.1666 12.6999 24.1666 14.9999C24.1666 17.2999 22.2999 19.1666 19.9999 19.1666Z" fill="#2CC37C"/>
</svg>
