<svg width="24" height="24" viewBox="0 0 24 24" xmlns="http://www.w3.org/2000/svg">
<path d="M12 0.500366C5.64944 0.500366 0.5 5.64981 0.5 12.0004C0.5 18.3509 5.64944 23.5004 12 23.5004C13.0606 23.5004 13.9167 22.6443 13.9167 21.5837C13.9167 21.0854 13.725 20.6381 13.4183 20.2931C13.1244 19.9609 12.9328 19.5137 12.9328 19.0281C12.9328 17.9676 13.7889 17.1115 14.8494 17.1115H17.1111C20.6378 17.1115 23.5 14.2493 23.5 10.7226C23.5 5.07481 18.3506 0.500366 12 0.500366ZM4.97222 12.0004C3.91167 12.0004 3.05556 11.1443 3.05556 10.0837C3.05556 9.02314 3.91167 8.16703 4.97222 8.16703C6.03278 8.16703 6.88889 9.02314 6.88889 10.0837C6.88889 11.1443 6.03278 12.0004 4.97222 12.0004ZM8.80556 6.88926C7.745 6.88926 6.88889 6.03314 6.88889 4.97259C6.88889 3.91203 7.745 3.05592 8.80556 3.05592C9.86611 3.05592 10.7222 3.91203 10.7222 4.97259C10.7222 6.03314 9.86611 6.88926 8.80556 6.88926ZM15.1944 6.88926C14.1339 6.88926 13.2778 6.03314 13.2778 4.97259C13.2778 3.91203 14.1339 3.05592 15.1944 3.05592C16.255 3.05592 17.1111 3.91203 17.1111 4.97259C17.1111 6.03314 16.255 6.88926 15.1944 6.88926ZM19.0278 12.0004C17.9672 12.0004 17.1111 11.1443 17.1111 10.0837C17.1111 9.02314 17.9672 8.16703 19.0278 8.16703C20.0883 8.16703 20.9444 9.02314 20.9444 10.0837C20.9444 11.1443 20.0883 12.0004 19.0278 12.0004Z" fill="white"/>
</svg>
