<svg width="14" height="13" viewBox="0 0 14 13" fill="none" xmlns="http://www.w3.org/2000/svg">
<path d="M8.125 0.875C5.01875 0.875 2.5 3.39375 2.5 6.5H0.625L3.125 8.99375L5.625 6.5H3.75C3.75 4.08125 5.70625 2.125 8.125 2.125C10.5437 2.125 12.5 4.08125 12.5 6.5C12.5 8.91875 10.5437 10.875 8.125 10.875C6.91875 10.875 5.825 10.3813 5.0375 9.5875L4.15 10.475C5.16875 11.4938 6.56875 12.125 8.125 12.125C11.2312 12.125 13.75 9.60625 13.75 6.5C13.75 3.39375 11.2312 0.875 8.125 0.875Z" fill="#323232"/>
</svg>
