<svg width="21" height="21" viewBox="0 0 21 21" fill="none" xmlns="http://www.w3.org/2000/svg">
<path d="M11.4584 2.92354C14.925 3.35959 17.6394 6.07398 18.0755 9.54055C18.1409 10.0965 18.6096 10.4999 19.1547 10.4999C19.1983 10.4999 19.2419 10.4999 19.2855 10.489C19.885 10.4126 20.3102 9.86758 20.2339 9.26802C19.6779 4.80944 16.1787 1.31017 11.7201 0.754213C11.1205 0.688806 10.5755 1.11395 10.51 1.71352C10.4337 2.31308 10.8589 2.85814 11.4584 2.92354ZM11.8727 5.22369C11.2949 5.07107 10.6954 5.41991 10.5427 6.00857C10.3901 6.59724 10.739 7.1859 11.3276 7.33852C12.4723 7.63285 13.3661 8.52674 13.6714 9.68226C13.8022 10.1728 14.2382 10.4999 14.7288 10.4999C14.816 10.4999 14.9141 10.489 15.0013 10.4671C15.5791 10.3145 15.9279 9.71497 15.7862 9.13721C15.2739 7.2077 13.7804 5.71424 11.8727 5.22369ZM18.3807 14.0536L15.6118 13.7375C14.9468 13.6612 14.2927 13.8901 13.824 14.3589L11.8182 16.3647C8.73316 14.7949 6.20409 12.2767 4.63432 9.18081L6.65103 7.1641C7.11978 6.69535 7.34871 6.04128 7.2724 5.37631L6.95627 2.62921C6.82545 1.5282 5.89885 0.699707 4.78694 0.699707H2.90103C1.6692 0.699707 0.644493 1.72442 0.720801 2.95625C1.29856 12.2658 8.74406 19.7004 18.0427 20.2782C19.2746 20.3545 20.2993 19.3298 20.2993 18.098V16.2121C20.3102 15.111 19.4817 14.1844 18.3807 14.0536Z" fill="white"/>
</svg>
