<svg width="16" height="16" viewBox="0 0 16 16" fill="none" xmlns="http://www.w3.org/2000/svg">
<path d="M8.73337 2.2083C11.3834 2.54163 13.4584 4.61663 13.7917 7.26663C13.8417 7.69163 14.2 7.99997 14.6167 7.99997C14.65 7.99997 14.6834 7.99997 14.7167 7.99163C15.175 7.9333 15.5 7.51663 15.4417 7.0583C15.0167 3.64997 12.3417 0.974967 8.93337 0.549967C8.47503 0.499967 8.05837 0.824968 8.00837 1.2833C7.95003 1.74163 8.27503 2.1583 8.73337 2.2083ZM9.05003 3.96663C8.60837 3.84997 8.15003 4.11663 8.03337 4.56663C7.9167 5.01663 8.18337 5.46663 8.63337 5.5833C9.50837 5.8083 10.1917 6.49163 10.425 7.37497C10.525 7.74997 10.8584 7.99997 11.2334 7.99997C11.3 7.99997 11.375 7.99163 11.4417 7.97497C11.8834 7.8583 12.15 7.39997 12.0417 6.9583C11.65 5.4833 10.5084 4.34163 9.05003 3.96663ZM14.025 10.7166L11.9084 10.475C11.4 10.4166 10.9 10.5916 10.5417 10.95L9.00837 12.4833C6.65003 11.2833 4.7167 9.3583 3.5167 6.99163L5.05837 5.44997C5.4167 5.09163 5.5917 4.59163 5.53337 4.0833L5.2917 1.9833C5.1917 1.14163 4.48337 0.508301 3.63337 0.508301H2.1917C1.25003 0.508301 0.466701 1.29163 0.525034 2.2333C0.966701 9.34997 6.65837 15.0333 13.7667 15.475C14.7084 15.5333 15.4917 14.75 15.4917 13.8083V12.3666C15.5 11.525 14.8667 10.8166 14.025 10.7166Z" fill="#2CC37C"/>
</svg>
