<svg width="50" height="50" viewBox="0 0 50 50" fill="none" xmlns="http://www.w3.org/2000/svg">
<path fill-rule="evenodd" clip-rule="evenodd" d="M15.2223 9.04779C11.8322 9.46165 9.29159 10.3175 6.98041 11.8241C4.45336 13.4714 2.82851 15.5231 2.15364 17.9191C2.01331 18.417 2 19.0802 2 25.5597V32.655L2.25272 33.3905C2.97845 35.502 4.47883 37.4164 6.54284 38.8646C8.22825 40.047 10.7209 41.0814 13.0201 41.5526C15.2338 42.0061 14.9829 42 31.2947 42H46.4856L46.7428 41.7174L47 41.4348V35.6505C47 29.9543 46.9973 29.8627 46.8197 29.6411C46.7205 29.5174 46.4924 29.3761 46.3129 29.3271C46.1024 29.2697 43.6274 29.2379 39.3531 29.2376L32.7199 29.2371V24.3163C32.7199 20.3213 32.6948 19.251 32.5866 18.6271C31.7494 13.8001 26.5808 9.93833 19.8535 9.11346C18.9401 9.00141 15.9491 8.95901 15.2223 9.04779ZM18.7483 10.8064C21.2676 11.0053 23.2556 11.5221 25.2713 12.5021C29.5692 14.5916 31.6984 18.2359 30.6919 21.7802C30.0499 24.041 28.0639 26.162 25.3381 27.4979C22.865 28.7098 20.4181 29.2443 17.3353 29.2459C14.4811 29.2475 12.0068 28.7289 9.65309 27.6358C3.34683 24.7074 1.86002 18.7914 6.37104 14.5775C8.60984 12.4862 12.0294 11.1091 15.7072 10.8175C17.0202 10.7135 17.5473 10.7115 18.7483 10.8064ZM16.4368 15.0524C14.105 15.2739 12.0553 16.435 11.1007 18.075C10.3841 19.3061 10.4332 20.9395 11.2235 22.1572C11.6954 22.8842 12.6955 23.7286 13.6057 24.1685C14.9351 24.8109 15.5725 24.9432 17.3379 24.9432C18.6087 24.9432 18.9436 24.9143 19.5416 24.753C20.9745 24.3666 22.385 23.5316 23.1199 22.6348C26.0688 19.0364 22.0843 14.5158 16.4368 15.0524ZM19.0555 16.9948C20.3595 17.3048 21.6729 18.2 22.1002 19.0701C22.3463 19.571 22.3335 20.5076 22.074 20.9905C21.6018 21.8694 20.4166 22.6722 19.0833 23.0164C18.1963 23.2453 16.6389 23.2646 15.7512 23.0575C14.3432 22.7293 13.0674 21.8718 12.6049 20.9431C12.3427 20.4166 12.3371 19.6583 12.5914 19.1078C12.8207 18.6113 13.5169 17.9219 14.1328 17.5815C14.6733 17.2828 15.5487 16.9776 16.192 16.8636C16.7924 16.7573 18.3582 16.829 19.0555 16.9948ZM5.13951 26.6889C7.41463 28.8209 10.412 30.184 14.2968 30.8535C15.0517 30.9836 16.6169 31.0008 30.1856 31.0286L45.237 31.0594V35.6428V40.2262H44.3115H43.3859V37.8126V35.3989L43.1302 35.1302C42.7745 34.7564 42.252 34.7498 41.8806 35.1144L41.6229 35.3673V37.7967V40.2262H39.7718H37.9207V38.8351V37.4439L37.663 37.191C37.4725 37.004 37.3216 36.9381 37.0842 36.9381C36.2956 36.9381 36.1577 37.2339 36.1577 38.9239V40.2262H34.3506H32.5436V39.0689C32.5436 37.6821 32.5016 37.4397 32.2122 37.1556C31.7896 36.7407 30.984 36.9218 30.7872 37.4759C30.7351 37.6226 30.6925 38.3014 30.6925 38.9844V40.2262H28.8854H27.0784V37.9388C27.0784 36.6808 27.0412 35.5553 26.9956 35.4378C26.7581 34.8246 26.0669 34.6686 25.5592 35.1138L25.2713 35.3662L25.2442 37.7962L25.217 40.2262H23.5032H21.7894V38.9844C21.7894 38.3014 21.7468 37.6226 21.6947 37.4759C21.4979 36.9218 20.6923 36.7407 20.2696 37.1556C19.9803 37.4397 19.9383 37.6821 19.9383 39.0689V40.2262H18.1312H16.3242V38.9239C16.3242 37.5481 16.2479 37.2161 15.8883 37.0272C15.6119 36.8819 15.1322 36.9239 14.8846 37.1151C14.5661 37.3611 14.4741 37.7714 14.4736 38.9499C14.473 40.1225 14.5514 40.0521 13.4871 39.8351C10.4818 39.2223 7.78468 37.8527 6.05238 36.0597C5.09738 35.0713 4.48562 34.0784 4.0611 32.828C3.86153 32.2402 3.85465 32.1188 3.82662 28.726L3.79771 25.2297L4.14316 25.6542C4.33312 25.8878 4.78145 26.3533 5.13951 26.6889ZM30.9569 27.247V29.2371L28.3786 29.2356L25.8002 29.2343L26.5309 28.8491C27.8133 28.1732 28.5874 27.591 29.7669 26.4153C30.3972 25.787 30.9228 25.2693 30.9349 25.2649C30.9469 25.2605 30.9569 26.1524 30.9569 27.247Z" fill="#333333" fill-opacity="0.5"/>
</svg>
