<svg width="35" height="35" viewBox="0 0 35 35" fill="none" xmlns="http://www.w3.org/2000/svg">
<path d="M30.25 4.75H4.75V30.25H30.25V4.75ZM18.9592 10.5017L20.4608 9L22.4583 10.9975L24.4558 9L25.9575 10.5017L23.96 12.4992L25.9575 14.4967L24.4558 15.9983L22.4583 14.015L20.4608 16.0125L18.9592 14.5108L20.9567 12.5133L18.9592 10.5017ZM9.35417 11.4367H16.4375V13.5617H9.35417V11.4367ZM16.7917 23.1667H13.9583V26H11.8333V23.1667H9V21.0417H11.8333V18.2083H13.9583V21.0417H16.7917V23.1667ZM26 24.9375H18.9167V22.8125H26V24.9375ZM26 21.3958H18.9167V19.2708H26V21.3958Z" fill="#2CC37C"/>
</svg>
