<svg width="35" height="35" viewBox="0 0 35 35" fill="none" xmlns="http://www.w3.org/2000/svg">
<path fill-rule="evenodd" clip-rule="evenodd" d="M23.5073 8.71505H27.3351C28.6633 8.71505 29.7501 9.8018 29.7501 11.13V25.62C29.7501 26.9483 28.6633 28.035 27.3351 28.035H8.0151C6.68685 28.035 5.6001 26.9483 5.6001 25.62V11.13C5.6001 9.8018 6.68685 8.71505 8.0151 8.71505H11.8429L13.3281 7.08492C13.7869 6.58985 14.439 6.30005 15.1152 6.30005H20.235C20.9112 6.30005 21.5632 6.58985 22.01 7.08492L23.5073 8.71505ZM11.6376 18.375C11.6376 21.7077 14.3424 24.4125 17.6751 24.4125C21.0078 24.4125 23.7126 21.7077 23.7126 18.375C23.7126 15.0423 21.0078 12.3375 17.6751 12.3375C14.3424 12.3375 11.6376 15.0423 11.6376 18.375ZM21.2975 18.3751C21.2975 20.3757 19.6756 21.9976 17.675 21.9976C15.6743 21.9976 14.0525 20.3757 14.0525 18.3751C14.0525 16.3744 15.6743 14.7526 17.675 14.7526C19.6756 14.7526 21.2975 16.3744 21.2975 18.3751Z" />
</svg>
