<svg width="50" height="50" viewBox="0 0 50 50" fill="none" xmlns="http://www.w3.org/2000/svg">
<path fill-rule="evenodd" clip-rule="evenodd" d="M40.0959 3.05864C39.8171 3.17827 2.57488 29.2658 2.30245 29.5323C2.16773 29.664 2.03617 29.9078 2.00944 30.075C1.90998 30.6978 2.6163 31.2899 3.19431 31.0682C3.38892 30.9936 5.6702 29.4313 7.18563 28.3348L7.60334 28.0326V33.3103V38.5881L6.02195 38.6172L4.44057 38.6463L4.1633 38.9239C3.77497 39.3125 3.77136 39.8236 4.15424 40.2066C4.39484 40.4472 4.49113 40.4792 5.08955 40.5177L5.75664 40.5605V43.9779V47.3951L6.01325 47.6824L6.26985 47.9697L26.2422 47.9922C43.9889 48.0122 46.2435 47.9998 46.4736 47.8808C47.0374 47.5892 46.9995 48.7293 46.9995 32.1111C46.9995 21.5564 46.9709 16.9095 46.9049 16.7201C46.853 16.5709 46.7046 16.3771 46.5752 16.2892C46.3596 16.1429 46.0545 16.1273 42.9323 16.1036L39.5248 16.0778V10.8904V5.70305L39.9367 5.41895C41.1352 4.59252 41.4552 4.20551 41.3354 3.72808C41.203 3.20017 40.5667 2.85661 40.0959 3.05864ZM37.5901 11.5997V16.0855L36.2491 16.086C35.5115 16.0863 34.7614 16.1272 34.5822 16.177C34.1607 16.294 33.8967 16.6315 33.8967 17.053C33.8967 17.6829 34.3934 18.019 35.3257 18.02L35.7434 18.0205V19.8645V21.7085L31.3481 21.7336L26.9529 21.7587L26.6791 22.0326C26.251 22.4609 26.3107 23.1641 26.801 23.4706C26.907 23.5367 27.2805 23.6094 27.6312 23.6319L28.2687 23.6729V25.5053V27.3377L23.8938 27.3628C19.8218 27.3861 19.5025 27.3991 19.2816 27.549C18.9582 27.7685 18.8154 28.2195 18.9449 28.6121C19.0838 29.0329 19.3999 29.2091 20.1071 29.2597L20.7061 29.3026V31.1378V32.9731L16.551 32.9737C13.9745 32.9739 12.2722 33.0085 12.0701 33.0646C11.6521 33.1807 11.3847 33.5195 11.3847 33.9329C11.3847 34.5614 11.8682 34.9082 12.7449 34.9082H13.2314V36.7552V38.6023H11.3407H9.45003V32.6785V26.7547L23.4541 16.9404C31.1563 11.5426 37.4878 7.12346 37.5242 7.12012C37.5605 7.11669 37.5901 9.13256 37.5901 11.5997ZM45.131 32.0716L45.1088 46.1226L26.3561 46.1448L7.60334 46.167V43.3521V40.5374L10.8351 40.5368C12.7787 40.5366 14.1966 40.5003 14.3926 40.4459C14.5717 40.3961 14.7992 40.2525 14.8982 40.1267C15.0698 39.9085 15.078 39.7832 15.078 37.4069V34.9158L18.55 34.89L22.022 34.8642L22.3093 34.5767L22.5967 34.2894L22.6237 31.788L22.6507 29.2867L26.0533 29.2608C29.1706 29.2372 29.4756 29.2216 29.6911 29.0752C29.8206 28.9874 29.9689 28.7935 30.0209 28.6444C30.0792 28.477 30.1154 27.4686 30.1154 26.0115V23.6497L33.3471 23.6492C35.2907 23.649 36.7087 23.6127 36.9046 23.5583C37.0838 23.5085 37.3113 23.3649 37.4103 23.2391C37.5819 23.0209 37.5901 22.8956 37.5901 20.5154V18.0205H41.3717H45.1533L45.131 32.0716Z" fill="#333333" fill-opacity="0.5"/>
</svg>
