<svg width="50" height="50" viewBox="0 0 50 50" fill="none" xmlns="http://www.w3.org/2000/svg">
<path fill-rule="evenodd" clip-rule="evenodd" d="M12.9923 6.23845C12.9644 6.36955 12.7445 8.6945 12.5034 11.4049C12.2625 14.1153 12.0397 16.4879 12.0084 16.6773L11.9514 17.0217H15.0275H18.1034V29.6669C18.1034 44.1719 18.0274 43.0345 19.0665 44.0565C19.9052 44.8813 20.4405 45.0371 22.236 44.9786C23.5485 44.9358 23.8839 44.8541 24.5817 44.4068C24.8542 44.2322 24.8762 44.2352 25.2282 44.4924C25.4287 44.6389 25.7575 44.8131 25.9589 44.8794C26.2192 44.9651 28.5627 45 34.0542 45C42.3886 45 42.3668 45.0014 42.9697 44.4444C43.2117 44.2207 43.2279 44.2194 43.5115 44.4007C44.222 44.855 44.551 44.9357 45.8674 44.9786C47.6629 45.0371 48.1983 44.8813 49.0369 44.0565C50.0147 43.0948 50 43.1971 50 37.3696C50 31.5435 50.0144 31.644 49.0388 30.6845C48.3072 29.965 47.6955 29.7391 46.4782 29.7391H45.6896V26.9502C45.6896 25.4163 45.6378 23.8782 45.5744 23.5324C45.1601 21.2701 43.0941 19.2382 40.7937 18.8307C39.9248 18.6767 28.1787 18.6767 27.3097 18.8307C26.2598 19.0167 25.0377 19.6618 24.212 20.4659C23.3865 21.2699 22.7214 22.4815 22.529 23.5324C22.4656 23.8782 22.4138 25.4163 22.4138 26.9502V29.7391H21.6227C21.1876 29.7391 20.6057 29.806 20.3296 29.8877L19.8276 30.0363V23.529V17.0217H22.9035H25.9796L25.9226 16.6773C25.8914 16.4879 25.6685 14.1153 25.4276 11.4049C25.1865 8.6945 24.9666 6.36955 24.9387 6.23845L24.8881 6H18.9655H13.0429L12.9923 6.23845ZM23.385 7.9341C23.3859 8.0652 23.5307 9.69864 23.7069 11.5639C23.8831 13.4291 24.0279 15.0386 24.0288 15.1406C24.0301 15.3146 23.7177 15.3261 18.9655 15.3261C14.2134 15.3261 13.901 15.3146 13.9023 15.1406C13.9031 15.0386 14.0479 13.4291 14.2241 11.5639C14.4003 9.69864 14.5451 8.0652 14.546 7.9341L14.5474 7.69565H18.9655H23.3836L23.385 7.9341ZM7.43696 16.1474C6.77403 16.8638 5.91713 18.3822 5.76746 19.106L5.69806 19.4415L5.21724 19.2324C4.52521 18.9314 3.40905 18.7213 2.48976 18.7192L1.69278 18.7174L1.7514 19.7507C1.84849 21.4631 2.4847 22.9895 3.61347 24.2182L4.01218 24.6522H3.62241C3.40808 24.6522 3.23276 24.7021 3.23276 24.763C3.23276 24.8241 3.56875 26.0282 3.97952 27.439C4.39019 28.8498 4.75916 30.1353 4.79935 30.2955L4.87252 30.587H2.43621H0V37.7935V45H0.862069H1.72414V42.8804V40.7609H8.18965H14.6552V42.8804V45H15.5172H16.3793V37.7935V30.587H13.9431H11.5068L11.58 30.2955C11.6201 30.1353 11.9891 28.8498 12.3998 27.439C12.8106 26.0282 13.1465 24.8241 13.1465 24.763C13.1465 24.7021 12.972 24.6522 12.7586 24.6522H12.3706L12.9182 24.0629C13.9725 22.9284 14.6492 21.1431 14.6533 19.4857L14.6552 18.7174H13.9502C13.1243 18.7174 11.8308 18.9616 11.1613 19.2438L10.6894 19.4427L10.5629 18.9484C10.3567 18.1428 9.61799 16.87 8.92543 16.1265C8.5695 15.7446 8.23793 15.4321 8.18868 15.4321C8.13944 15.4321 7.80118 15.7539 7.43696 16.1474ZM8.54784 18.5319C8.69418 18.8379 8.86713 19.2791 8.93222 19.5122C9.09504 20.0959 9.07952 21.5217 8.90323 22.1617C8.74267 22.7449 8.29569 23.6984 8.18286 23.6984C8.07403 23.6984 7.57036 22.5419 7.44429 22.0027C7.2973 21.3736 7.2987 20.0437 7.44709 19.5122C7.60474 18.9472 8.07424 17.9755 8.18965 17.9755C8.2403 17.9755 8.40151 18.226 8.54784 18.5319ZM41.3987 20.8015C42.4001 21.2681 43.0245 21.869 43.5091 22.8332L43.9116 23.6336L43.945 26.8188L43.9784 30.0041L43.4601 30.3838C42.8154 30.856 42.3549 31.6546 42.2722 32.4439C42.2387 32.7632 42.1965 33.0245 42.1785 33.0245C42.1607 33.0245 41.9855 32.9328 41.7895 32.8207C40.8483 32.2826 40.6906 32.2724 33.7678 32.3052L27.3168 32.3356L26.6703 32.6482C26.3146 32.8201 25.9943 32.9768 25.9584 32.9964C25.9224 33.016 25.8654 32.769 25.8317 32.4477C25.7484 31.6544 25.2893 30.857 24.6433 30.3838L24.125 30.0041L24.1584 26.8247L24.1918 23.6454L24.5329 22.9374C24.7204 22.5482 25.0719 22.0183 25.3138 21.7601C25.7888 21.2533 26.7651 20.6873 27.4373 20.529C27.6755 20.4728 30.6146 20.4381 34.2672 20.4482L40.6789 20.466L41.3987 20.8015ZM4.45894 20.7353C5.37845 21.0736 5.56121 21.2619 5.64429 21.9565C5.68351 22.2854 5.85496 22.9072 6.02521 23.3384C6.19547 23.7695 6.31228 24.1223 6.2848 24.1223C6.25743 24.1223 6.02748 23.9819 5.77392 23.8104C4.77532 23.1347 3.78696 21.7873 3.59407 20.8387C3.51422 20.4459 3.63362 20.4316 4.45894 20.7353ZM12.8207 20.7045C12.8161 21.0398 12.3234 22.0812 11.9026 22.6449C11.5245 23.1515 10.3497 24.1223 10.1147 24.1223C10.0604 24.1223 10.0846 23.9911 10.1684 23.8308C10.4042 23.3802 10.7759 22.1218 10.7759 21.7745C10.7759 21.3755 11.1655 21.0145 11.8931 20.7392C12.5908 20.4754 12.824 20.4666 12.8207 20.7045ZM10.8836 26.4307C10.8836 26.5079 10.3934 28.2273 9.90269 29.8716L9.68911 30.587H8.18965H6.69019L6.47661 29.8716C5.98588 28.2273 5.49569 26.5079 5.49569 26.4307C5.49569 26.3851 6.70797 26.3478 8.18965 26.3478C9.67133 26.3478 10.8836 26.3851 10.8836 26.4307ZM23.4734 31.651C23.6116 31.7361 23.8178 31.9827 23.9313 32.1989C24.1261 32.5694 24.1379 32.8688 24.1377 37.3918C24.1376 41.7491 24.1203 42.2258 23.9491 42.5625C23.6617 43.1284 23.1961 43.304 21.9828 43.304C20.7694 43.304 20.3038 43.1284 20.0164 42.5625C19.8453 42.2257 19.8279 41.7483 19.8279 37.3696C19.8279 32.9909 19.8453 32.5134 20.0164 32.1766C20.3249 31.5692 20.7655 31.4169 22.0905 31.4597C22.8389 31.4838 23.3071 31.5486 23.4734 31.651ZM47.5215 31.6205C48.2784 31.9922 48.2755 31.9703 48.2755 37.3696C48.2755 41.7483 48.2582 42.2257 48.0871 42.5625C47.7997 43.1284 47.334 43.304 46.1207 43.304C44.9073 43.304 44.4417 43.1284 44.1543 42.5625C43.9832 42.2257 43.9658 41.748 43.9657 37.3679C43.9655 31.9757 43.9577 32.0339 44.7265 31.6284C45.238 31.3586 46.9784 31.3536 47.5215 31.6205ZM14.6552 35.6739V39.0652H8.18965H1.72414V35.6739V32.2826H8.18965H14.6552V35.6739ZM40.7866 34.2599C41.6986 34.744 42.1446 35.473 42.2191 36.6012L42.2697 37.3696H34.0517H25.8337L25.8844 36.6012C25.9712 35.2851 26.6139 34.4382 27.8011 34.0755C27.9496 34.0302 30.8351 34.0017 34.2134 34.0122C40.2825 34.031 40.3608 34.034 40.7866 34.2599ZM6.03448 35.6739V36.5217H8.18965H10.3448V35.6739V34.8261H8.18965H6.03448V35.6739ZM42.2414 40.9246C42.2414 42.7576 42.2376 42.7878 41.9768 43.0442L41.7124 43.3043H34.0517H26.391L26.1266 43.0442C25.8658 42.7878 25.8621 42.7576 25.8621 40.9246V39.0652H34.0517H42.2414V40.9246Z" fill="#333333" fill-opacity="0.5"/>
</svg>
