<svg width="50" height="50" viewBox="0 0 50 50" fill="none" xmlns="http://www.w3.org/2000/svg">
<path fill-rule="evenodd" clip-rule="evenodd" d="M12.5144 2.10455C12.4115 2.1601 12.2547 2.29307 12.1657 2.40014C12.0137 2.58342 12.004 3.93667 12.0021 25.515L12 48.4353L12.2236 48.6722C12.3467 48.8025 12.5887 48.9343 12.7614 48.9649C12.9343 48.9956 16.0314 49.0087 19.6441 48.994L26.2125 48.9671L26.4719 48.7125L26.7312 48.458L26.7556 25.6182C26.7739 8.54185 26.7529 2.71363 26.6723 2.52162C26.4464 1.98315 26.6496 1.99766 19.3703 2.00069C14.7015 2.00271 12.6454 2.03384 12.5144 2.10455ZM24.9792 5.86879L25.0043 7.94893L23.6951 7.98079C22.4109 8.01192 22.381 8.01734 22.1289 8.26509C21.9341 8.45636 21.8717 8.60668 21.8717 8.88492C21.8717 9.16315 21.9341 9.31347 22.1289 9.50475C22.381 9.7524 22.411 9.75791 23.6934 9.78904L25.0008 9.82081V11.2812V12.7416H23.7802C22.4095 12.7416 22.1098 12.8292 21.9169 13.2864C21.7808 13.6089 21.8378 13.914 22.0916 14.2222C22.262 14.4291 22.3409 14.4428 23.6126 14.4863L24.9541 14.5322L24.9798 16.0244L25.0055 17.5166H22.7628C21.2849 17.5166 20.4404 17.5522 20.2864 17.6212C19.9907 17.7534 19.7384 18.2605 19.8164 18.5656C19.8488 18.692 19.9812 18.8994 20.1108 19.0267L20.3465 19.2582L22.6503 19.2827L24.9541 19.3072V20.7764V22.2457L23.6235 22.2916C22.4005 22.3338 22.2759 22.3542 22.0824 22.5446C21.7711 22.8506 21.7928 23.4077 22.1288 23.7378C22.381 23.9858 22.4096 23.9909 23.6933 24.0203L25.0008 24.0501V25.5037V26.9571L23.6934 26.9889C22.411 27.02 22.381 27.0255 22.1289 27.2732C21.7701 27.6256 21.7701 28.1604 22.1289 28.5128C22.3811 28.7606 22.4109 28.766 23.6957 28.7971L25.0055 28.829L24.9798 30.2663L24.9541 31.7038L22.7093 31.7263C20.2664 31.7508 20.0987 31.7823 19.8974 32.2547C19.744 32.6151 19.8199 32.9693 20.1073 33.2346C20.3353 33.4451 20.3763 33.4489 22.6699 33.4759L25.0008 33.5034V34.9593V36.4152L23.6934 36.447C22.411 36.4781 22.381 36.4836 22.1289 36.7313C21.9341 36.9226 21.8717 37.0729 21.8717 37.3511C21.8717 37.6293 21.9341 37.7797 22.1289 37.9709C22.381 38.2186 22.411 38.2241 23.6934 38.2552L25.0008 38.287V39.7474V41.2078H23.7802C22.4095 41.2078 22.1098 41.2954 21.9169 41.7526C21.7808 42.0751 21.8378 42.3802 22.0916 42.6884C22.262 42.8953 22.3409 42.909 23.6126 42.9525L24.9541 42.9984L24.9792 45.0875L25.0044 47.1765H19.3907H13.7771V25.4589V3.74117L19.3656 3.76486L24.9541 3.78855L24.9792 5.86879ZM33.7916 4.15099C33.5015 4.30608 30.5295 9.30254 30.4533 9.76333C30.4093 10.0296 30.4488 10.1198 30.7318 10.3976L31.0616 10.7214H32.1934H33.3251V25.5055V40.2896H32.2448C30.9811 40.2896 30.6856 40.3913 30.5202 40.8834C30.4607 41.0603 30.4401 41.2916 30.4744 41.3974C30.5816 41.7292 33.3407 46.3834 33.5829 46.6411C33.8809 46.9582 34.1826 47.0273 34.5716 46.8677C34.8452 46.7555 35.0759 46.4135 36.4163 44.1343C37.7249 41.9093 37.9489 41.4726 37.9516 41.1415C37.9541 40.8578 37.8978 40.6976 37.7421 40.5446C37.5464 40.3522 37.4323 40.3331 36.3158 40.3053L35.1022 40.275V25.4982V10.7214H36.1171C36.6753 10.7214 37.2658 10.6756 37.4293 10.6197C37.7459 10.5113 38.0028 10.1355 38 9.78482C37.9973 9.44267 34.9794 4.36825 34.6662 4.17927C34.3503 3.98864 34.11 3.98093 33.7916 4.15099ZM34.9082 7.83929C35.2207 8.3739 35.4763 8.84855 35.4763 8.89401C35.4763 8.93955 34.9081 8.97674 34.2136 8.97674C33.5192 8.97674 32.951 8.94901 32.951 8.91504C32.951 8.76068 34.1913 6.77686 34.2613 6.81928C34.3046 6.84564 34.5957 7.30458 34.9082 7.83929ZM35.4763 42.1122C35.4763 42.204 34.4022 44.0438 34.2765 44.1672C34.2241 44.2186 33.9482 43.8374 33.5707 43.192C33.2299 42.6092 32.951 42.1103 32.951 42.0833C32.951 42.0563 33.5192 42.0343 34.2136 42.0343C34.9081 42.0343 35.4763 42.0693 35.4763 42.1122Z" fill="#333333" fill-opacity="0.5"/>
</svg>
