<svg width="12" height="18" viewBox="0 0 12 18" fill="none" xmlns="http://www.w3.org/2000/svg">
<path d="M5.99935 0.666992C2.77435 0.666992 0.166016 3.27533 0.166016 6.50033C0.166016 7.95033 0.582682 9.30866 1.34102 10.5337C2.13268 11.817 3.17435 12.917 3.97435 14.2003C4.36602 14.8253 4.64935 15.4087 4.94935 16.0837C5.16602 16.542 5.34102 17.3337 5.99935 17.3337C6.65768 17.3337 6.83268 16.542 7.04102 16.0837C7.34935 15.4087 7.62435 14.8253 8.01602 14.2003C8.81602 12.9253 9.85768 11.8253 10.6493 10.5337C11.416 9.30866 11.8327 7.95033 11.8327 6.50033C11.8327 3.27533 9.22435 0.666992 5.99935 0.666992ZM5.99935 8.79199C4.84935 8.79199 3.91602 7.85866 3.91602 6.70866C3.91602 5.55866 4.84935 4.62533 5.99935 4.62533C7.14935 4.62533 8.08268 5.55866 8.08268 6.70866C8.08268 7.85866 7.14935 8.79199 5.99935 8.79199Z" fill="#2CC37C"/>
</svg>
