<svg width="18" height="18" viewBox="0 0 18 18" fill="none" xmlns="http://www.w3.org/2000/svg">
    <path d="M12.8542 11.4167H12.0971L11.8287 11.1579C12.7679 10.0654 13.3333 8.64708 13.3333 7.10417C13.3333 3.66375 10.5446 0.875 7.10417 0.875C3.66375 0.875 0.875 3.66375 0.875 7.10417C0.875 10.5446 3.66375 13.3333 7.10417 13.3333C8.64708 13.3333 10.0654 12.7679 11.1579 11.8287L11.4167 12.0971V12.8542L16.2083 17.6362L17.6362 16.2083L12.8542 11.4167ZM7.10417 11.4167C4.71792 11.4167 2.79167 9.49042 2.79167 7.10417C2.79167 4.71792 4.71792 2.79167 7.10417 2.79167C9.49042 2.79167 11.4167 4.71792 11.4167 7.10417C11.4167 9.49042 9.49042 11.4167 7.10417 11.4167Z" />
</svg>
