<svg width="18" height="18" viewBox="0 0 18 18" fill="none" xmlns="http://www.w3.org/2000/svg">
<path d="M12.5327 5.46699C11.5577 4.49199 10.2827 4.00033 8.99935 4.00033V9.00033L5.46602 12.5337C7.41602 14.4837 10.5827 14.4837 12.541 12.5337C14.491 10.5837 14.491 7.41699 12.5327 5.46699ZM8.99935 0.666992C4.39935 0.666992 0.666016 4.40033 0.666016 9.00033C0.666016 13.6003 4.39935 17.3337 8.99935 17.3337C13.5993 17.3337 17.3327 13.6003 17.3327 9.00033C17.3327 4.40033 13.5993 0.666992 8.99935 0.666992ZM8.99935 15.667C5.31602 15.667 2.33268 12.6837 2.33268 9.00033C2.33268 5.31699 5.31602 2.33366 8.99935 2.33366C12.6827 2.33366 15.666 5.31699 15.666 9.00033C15.666 12.6837 12.6827 15.667 8.99935 15.667Z" fill="#2CC37C"/>
</svg>
