<svg width="50" height="50" viewBox="0 0 50 50" fill="none" xmlns="http://www.w3.org/2000/svg">
<path fill-rule="evenodd" clip-rule="evenodd" d="M8.25001 31.5714C6.46249 31.5714 5 30.0929 5 28.2857V24.1786C5 23.5543 5.13002 22.93 5.35749 22.3714L12.7025 4.98999C13.45 3.24862 15.1725 2 17.1875 2H39.125C41.8225 2 44 4.20147 44 6.92857V28.2857C44 29.6328 43.4475 30.8815 42.57 31.7686L26.515 48L23.9475 45.4043C23.2975 44.7143 22.875 43.7943 22.875 42.7757L22.94 42.02L25.085 31.5714H8.25001ZM18.26 8.57145L11.5 24.5729V25H33.08L31.2275 33.9371L37.5 27.5957V8.57145H18.26Z" fill="#333333" fill-opacity="0.28"/>
</svg>
