<svg width="21" height="12" viewBox="0 0 21 12" fill="none" xmlns="http://www.w3.org/2000/svg">
<path fill-rule="evenodd" clip-rule="evenodd" d="M3.0851 0H0.787697C0.131289 0 0 0.297348 0 0.625137C0 1.21067 0.778876 4.11461 3.62657 7.9553C5.52503 10.5782 8.19977 12 10.6337 12C12.0941 12 12.2748 11.6842 12.2748 11.1403V9.15789C12.2748 8.52632 12.4131 8.40025 12.8755 8.40025C13.2163 8.40025 13.8004 8.56421 15.1634 9.82882C16.7212 11.3276 16.978 12 17.8541 12H20.1515C20.808 12 21.1362 11.6842 20.9468 11.061C20.7397 10.4399 19.9959 9.53874 19.0091 8.47055C18.4736 7.86164 17.6704 7.20594 17.427 6.87802C17.0862 6.4565 17.1836 6.26911 17.427 5.89446C17.427 5.89446 20.226 2.10057 20.5181 0.81259C20.6641 0.344147 20.5181 0 19.8233 0H17.5259C16.9418 0 16.6725 0.297348 16.5264 0.625137C16.5264 0.625137 15.3581 3.36518 13.7031 5.14503C13.1676 5.66021 12.9242 5.82417 12.6321 5.82417C12.4861 5.82417 12.2747 5.66021 12.2747 5.1919V0.81259C12.2747 0.250484 12.1052 0 11.6183 0H8.00808C7.64308 0 7.42349 0.260842 7.42349 0.508105C7.42349 1.0409 8.25103 1.16381 8.33634 2.66261V5.91789C8.33634 6.63158 8.20233 6.76099 7.9103 6.76099C7.13146 6.76099 5.23694 4.0087 4.11331 0.85939C3.89314 0.247264 3.67224 0 3.0851 0Z" fill="#61BFE8"/>
</svg>
